<svg width="42" height="42" viewBox="0 0 42 42" fill="none" xmlns="http://www.w3.org/2000/svg">
<rect width="42" height="42" rx="6" fill="#CDFFF3"/>
<path d="M22.9631 18.8153C22.9157 18.2945 22.705 17.8897 22.331 17.6009C21.9616 17.3073 21.4337 17.1605 20.7472 17.1605C20.2926 17.1605 19.9138 17.2197 19.6108 17.3381C19.3078 17.4564 19.0805 17.6198 18.929 17.8281C18.7775 18.0317 18.6993 18.2661 18.6946 18.5312C18.6851 18.7491 18.7277 18.9408 18.8224 19.1065C18.9219 19.2723 19.0639 19.419 19.2486 19.5469C19.438 19.67 19.6652 19.7789 19.9304 19.8736C20.1955 19.9683 20.4938 20.0511 20.8253 20.1222L22.0753 20.4062C22.795 20.5625 23.4295 20.7708 23.9787 21.0312C24.5327 21.2917 24.9967 21.6018 25.3707 21.9616C25.7495 22.3215 26.036 22.7358 26.2301 23.2045C26.4242 23.6733 26.5237 24.1989 26.5284 24.7812C26.5237 25.6998 26.2917 26.4882 25.8324 27.1463C25.3731 27.8045 24.7126 28.3087 23.8509 28.6591C22.9938 29.0095 21.9593 29.1847 20.7472 29.1847C19.5303 29.1847 18.4697 29.0024 17.5653 28.6378C16.661 28.2732 15.9579 27.7192 15.456 26.9759C14.9541 26.2325 14.696 25.2926 14.6818 24.1562H18.0483C18.0767 24.625 18.2022 25.0156 18.4247 25.3281C18.6473 25.6406 18.9527 25.8774 19.3409 26.0384C19.7339 26.1993 20.1884 26.2798 20.7045 26.2798C21.178 26.2798 21.5805 26.2159 21.9119 26.0881C22.2481 25.9602 22.5062 25.7827 22.6861 25.5554C22.866 25.3281 22.9583 25.0677 22.9631 24.7741C22.9583 24.4995 22.8731 24.2652 22.7074 24.071C22.5417 23.8722 22.286 23.7017 21.9403 23.5597C21.5994 23.4129 21.1638 23.2779 20.6335 23.1548L19.1136 22.7997C17.8542 22.5109 16.8622 22.0445 16.1378 21.4006C15.4134 20.7519 15.0535 19.8759 15.0582 18.7727C15.0535 17.8731 15.295 17.0848 15.7827 16.4077C16.2704 15.7306 16.9451 15.2027 17.8068 14.8239C18.6686 14.4451 19.651 14.2557 20.7543 14.2557C21.8812 14.2557 22.8589 14.4474 23.6875 14.831C24.5208 15.2098 25.1671 15.7424 25.6264 16.429C26.0857 17.1155 26.3201 17.911 26.3295 18.8153H22.9631Z" fill="black"/>
</svg>
